<svg id="Э_Image" data-name="Э Image" xmlns="http://www.w3.org/2000/svg" viewBox="0 0 270.96 302.41"><defs><style>.cls-1{fill:#865b30;}.cls-2{fill:#dcbc96;}</style></defs><title>logo7</title><path class="cls-1" d="M242.28,137.28a2.55,2.55,0,0,0,3,.35c2.53-1.38,2.39-1.21,4.38,1.35a44.6,44.6,0,0,1-5,1.78c-5.39,1.22-8.18-3.17-8.45-6.54a4.2,4.2,0,0,1,.9-2.3c.26-.5.53,0,.71.2a26.55,26.55,0,0,1,2.77,3.31A11.45,11.45,0,0,0,242.28,137.28Z" transform="translate(-8.08 -10.17)"/><path class="cls-1" d="M227.52,90.31a15.53,15.53,0,0,1-4.9,3.17,40.59,40.59,0,0,1-14.08,3.09l-1.33.06c1.29.54,2.36,1,3.39,1.42a33.73,33.73,0,0,1,12.34,9.11,19.72,19.72,0,0,1,4.44,16.9,15.2,15.2,0,0,1-4.31,7.48,74.48,74.48,0,0,0-7.14,8.71c-.91,1.31-.8,1.93.48,2.92,0,0,.09,0,.1.05.31,1-.38,1.65-.93,2.28-.37.41-.74,1.24-1.53.51-5-4.61-7-9.83-2.76-16.53,2.41-3.83,5.52-7.14,8.13-10.83a12,12,0,0,0,2.09-4.91,6.13,6.13,0,0,0-1.13-4.87,14.67,14.67,0,0,0-3.3-3.28c-6.63-4.79-13.9-8-22.15-8.54a34.29,34.29,0,0,0-11.58,1.63c-.85.23-2.9-1.26-2.95-2.14,0-.42.34-.37.58-.45a54.71,54.71,0,0,1,11-2.15c9.89-1,19.86-1.37,29.64-3.34a11.75,11.75,0,0,0,1.61-.46c1.72-.64,2-1.36,1-2.87a3.29,3.29,0,0,1-.11-3.61,1.92,1.92,0,0,1,3.4-.46C229.28,85.29,229.81,88,227.52,90.31Z" transform="translate(-8.08 -10.17)"/><path class="cls-1" d="M190.49,63.67c-.24.12-.56,0-.74.25l-.75-.24A1.6,1.6,0,0,1,190.49,63.67Z" transform="translate(-8.08 -10.17)"/><path class="cls-1" d="M158.38,134.2c.15-.38.25-.64.35-.91a33.33,33.33,0,0,1,5.4-9.42,11,11,0,0,1,8.85-4.28,6,6,0,0,1,4,1.59,2.57,2.57,0,0,1,.77,3.24,5.37,5.37,0,0,1-2.9,3.19,1.26,1.26,0,0,1-1.87-.68c-.11-.26-.23-.51-.34-.77-1.08-2.34-1.62-2.6-4.1-1.92a6.63,6.63,0,0,0-4.1,3.29,51.13,51.13,0,0,0-3.94,9.63c1.49,0,2-.41,3.6-3.31,2.26,2.82,4.55,5.54,4,9.48a6.31,6.31,0,0,1-2.31,4.07,3.91,3.91,0,0,1-4.89.24c-.81-.52-1.56-1.12-2.35-1.67-.14-.1-.38-.25-.49-.2a.56.56,0,0,0-.22.63,33,33,0,0,0,2.09,7.35c.27.66.72.48,1.18.41a41.67,41.67,0,0,1,17,.52,42.1,42.1,0,0,1,5.89,2,1.21,1.21,0,0,1,.86,1.36c-.07,1.34,0,2.68,0,4.37-7.25-4.67-14.66-6.81-23-5a38.75,38.75,0,0,0,5.85,7.75,56.86,56.86,0,0,0,13.75,10.54,1.6,1.6,0,0,1,.93,2.08c-.82,3.64-.81,3.67-4,1.71a51.36,51.36,0,0,1-19.59-20.72c-.37-.72-.71-.73-1.39-.53-5.33,1.55-9.36,4.89-12.7,9.17a30.44,30.44,0,0,0-5,9.11,14.15,14.15,0,0,0-1.23,3.81c-.87,0-1.51-.79-2.4-.72-.25-.06-.54,0-.73-.21a1.14,1.14,0,0,1-.27-1,20.25,20.25,0,0,1,1.51-5,38.35,38.35,0,0,1,4.89-8.19,30.14,30.14,0,0,1,14.47-9.82c.45-.15,1.1-.1.74-.94-2.12-4.95-2.31-10.16-2.11-15.42a59.41,59.41,0,0,1,5.52-23.74,39.71,39.71,0,0,1,9.34-12.64c1.13-1,1.12-1,1.8.26.93,1.73.94,1.73-.48,3.14-5.85,5.77-9.08,12.94-11.14,20.74a43.75,43.75,0,0,0-1.24,6.21A1.12,1.12,0,0,0,158.38,134.2Z" transform="translate(-8.08 -10.17)"/><path class="cls-1" d="M151.07,204.55c5.31,2.27,10.24,1.88,14.65-2.11,0,0,.1,0,.12,0,7.44-6.41,10.15-13.92,4.59-21.76a9.78,9.78,0,0,0-6.9-4.06l.28-2a14.56,14.56,0,0,1,12.53,11,15.43,15.43,0,0,1-1.36,10,25.2,25.2,0,0,1-7.09,8.94,21.86,21.86,0,0,1-9.83,4.4,14.72,14.72,0,0,1-8.13-.88,9.29,9.29,0,0,0,.44-2.56c.06-.05.07-.1,0-.15C150.65,205.16,150.37,204.46,151.07,204.55Z" transform="translate(-8.08 -10.17)"/><path class="cls-1" d="M163.53,176.63a9.77,9.77,0,0,0-8.27,3,4.76,4.76,0,0,0,0,7,32.92,32.92,0,0,0,2.66,2.75c2.18,1.88,2.48,4.06,1.28,6.57-2,2.35-4.84,2.19-6.55-.42a17.63,17.63,0,0,1-2.67-7.08c-.08-.52-.21-1.06-.32-1.59a2.57,2.57,0,0,0,0-.48c-.84-4.3,1.21-7.25,4.59-9.48a14.15,14.15,0,0,1,9.61-2.22Z" transform="translate(-8.08 -10.17)"/><path class="cls-1" d="M158.73,133.29c-.1.27-.2.53-.35.91a1.12,1.12,0,0,1,.11-1.14Z" transform="translate(-8.08 -10.17)"/><path class="cls-1" d="M145.45,201.5a12.16,12.16,0,0,1,.07,3.46c0,.45-.23.65-.67.63-4.25-3-7-7.15-9-11.85A23.43,23.43,0,0,1,135,191c1.58-.58,2.92-.4,3.57.47a20.68,20.68,0,0,0,4.31,7.5C143.68,199.85,144.6,200.65,145.45,201.5Z" transform="translate(-8.08 -10.17)"/><path class="cls-1" d="M144.73,237.42c.66.25.77.4.32.9l-1.43,1.27c-.43.1-.69.57-1.18.52a38.11,38.11,0,0,0-6.43-1.45,2.88,2.88,0,0,0-1.48-.18,25.51,25.51,0,0,0-13.9,2.79,33.93,33.93,0,0,0-15.11,14,14.73,14.73,0,0,0-1.77,4.5c-1.27.16-2.49.71-3.8.5a24,24,0,0,1,4.18-9.52,37.27,37.27,0,0,1,15.37-13,30.39,30.39,0,0,1,8.31-2.52,2.37,2.37,0,0,0,1.26-.18h4.16a4.21,4.21,0,0,0,1.76.18A45.82,45.82,0,0,1,144.73,237.42Z" transform="translate(-8.08 -10.17)"/><path class="cls-1" d="M122.41,86.75a118.91,118.91,0,0,0,9.92-14.25c-.48-.32-.79.06-1.1.21a94.53,94.53,0,0,0-14.45,8.47c-.72.52-1.09.45-1.61-.23A20.46,20.46,0,0,0,113,78.53c-.63-.61-.58-.91.17-1.39a106.31,106.31,0,0,1,15.46-8.38c2.15-.94,4.35-1.79,6.54-2.64A2,2,0,0,0,136.44,65a49,49,0,0,0,2.41-7.13c.18-.76.46-.84,1.13-.49,2.2,1.1,2.22,1.09,1.43,3.4-.35,1-.71,2-1.12,3.23,1.74-.47,3.28-.85,4.8-1.33a1.22,1.22,0,0,1,1.62.55c.54.93,1.82,1.79,1.58,2.68s-1.77.73-2.72,1.06c-2.45.85-4.89,1.73-7.29,2.72a2.24,2.24,0,0,0-1.2,1.07,108.41,108.41,0,0,1-13.36,19c-.59.69-.86.5-1.31-.08C121.27,88.16,121.26,88.18,122.41,86.75Z" transform="translate(-8.08 -10.17)"/><path class="cls-1" d="M124,284.47a9.77,9.77,0,0,1,2.93,2,1.54,1.54,0,0,0,1.48.47,117.25,117.25,0,0,0,21-4.93c4.34-1.45,8.54-3.25,12.75-5,1.58-.67,2.72-1.54,2.64-3.43a2.75,2.75,0,0,0,.18-1.5v-2.9a2.85,2.85,0,0,0-.18-1.5A29.37,29.37,0,0,0,160.87,256c-.28-.47-.47-1-.7-1.48l1-.9c.86-.21,1.32-1.26,2.34-1.15a36.64,36.64,0,0,1,3.71,9.51c.22,1,.45,2.07.67,3.11a2.31,2.31,0,0,0,.19,1.24l.06,1.16a11.74,11.74,0,0,0,.18,2.71,2.77,2.77,0,0,0,0,1.28c-.07.69-.16,1.39-.2,2.08,0,.51.2.41.46.16q4.29-2.49,8.46-5.15a27.71,27.71,0,0,0,5.92-5.51c.69-.78.35-1.47-.89-2.35a8.38,8.38,0,0,1-3.07-3.18c-.24-.53-.2-1.07-.38-1.58v-1.42a2.5,2.5,0,0,1,1.43-1.89,12,12,0,0,0,4.89-4.92,14.6,14.6,0,0,0,2.9,5.37c.63.69.9.56,1.16-.25.63-2,1.38-4.05,1.14-6.25a2.85,2.85,0,0,0-.18-1.5,15.77,15.77,0,0,0-.27-2,1.7,1.7,0,0,0-2.72-1.07,2.12,2.12,0,0,1-2.32.25,2.06,2.06,0,0,1-.89-2.37c.1-.68.77-1,1.43-1.24.46-.13.93-.21,1.4-.31H189a4.37,4.37,0,0,1,3.1,3.55,33.21,33.21,0,0,1,.79,4.65c0,4-1.53,7.6-3.09,11.16.31.21.43,0,.55-.14,9.71-9.52,16.77-20.58,19.66-34.05,2.67-12.52.83-24.46-4.76-35.87a3.3,3.3,0,0,1-.28-2.44,42.39,42.39,0,0,0,1.36-8.48c.52.2.66.68.86,1.05.73,1.33,1.46,2.67,2.12,4a1.35,1.35,0,0,0,1.61.83c10.63-.87,19.27-5.72,26.39-13.41,8.68-9.38,13.48-20.72,16.19-33.06.14-.64-.19-.84-.61-1.11-1.84-1.13-3.66-2.29-5.49-3.43a9.9,9.9,0,0,1-2.4-2,4.7,4.7,0,0,1-.13-6.62,11.61,11.61,0,0,1,1.25-1.28c1.24-1.13,2.59-2.14,3.7-3.37.44.07.35.42.44.66a5.23,5.23,0,0,0,1.81,2.48c.84.61,1.84,1.44,2.76,1.13.52-.17.18-1.59.16-2.45-.64-21.39-10.78-36.79-29.54-46.7-8.67-4.58-18-7.15-27.59-8.87-2.44-.43-4.89-.83-7.36-1a1.6,1.6,0,0,0-1.49,0l.75.24A41,41,0,0,1,198.82,69c3.84,3,5,6.73,3.3,11.28-.35,1-.85,1.85-2,1.93a3.33,3.33,0,0,1-3-1.49c-.56-.76-.22-1.54.76-2,1.66-.77,1.82-1,1.72-2.82a6.42,6.42,0,0,0-1.78-4.1,16.65,16.65,0,0,0-4.54-3.29c-.45-.23-.67-.2-.9.29a21.42,21.42,0,0,1-1.17,2.09A6.49,6.49,0,0,1,185,74a4.76,4.76,0,0,1-3.88-2.27,26.86,26.86,0,0,0-3.61-4.28,4.84,4.84,0,0,0,1.93-2,1.14,1.14,0,0,0-.66-1.7c-2.28-1.15-4.74-1.1-7.15-1.11a85.54,85.54,0,0,0-17.25,1.94,1.5,1.5,0,0,1-1.88-.71,31.52,31.52,0,0,0-2-2.65,71.18,71.18,0,0,1,8.94-1.74,122.78,122.78,0,0,1,59.16,6.93A72.77,72.77,0,0,1,244.9,83a51.81,51.81,0,0,1,10.77,15.74c.07.14.15.28.31.6.19-.49.33-.82.44-1.16a17,17,0,0,1,3.75-6.48,9.41,9.41,0,0,1,11.52-1.63,6.6,6.6,0,0,1,1.21,1,2.64,2.64,0,0,1,.53,3.28,3.08,3.08,0,0,1-3.57,1.24,3.17,3.17,0,0,1-.93-.53c-2.12-1.92-5.39-1-6.84.61a13.37,13.37,0,0,0-3.42,11.84,13,13,0,0,0,1.49,3c.23.45.47.3.73,0,.66-.64,1.33-1.27,2-1.93a3.44,3.44,0,0,1,2.47-1,1.75,1.75,0,0,1,1.9,1.3c.15.41.33.81.46,1.23.53,1.63,1.47,2.61,3.35,2.39.63-.08,1.33,0,1.5.85a1.51,1.51,0,0,1-.84,1.7,16.33,16.33,0,0,1-4,1.23c-.38.11-.77.19-1.43.34a10.49,10.49,0,0,0,7.61,1c.57-.15,1.14-.36,1.72-.5,2.18-.5,3,.07,3.43,2.27a2.53,2.53,0,0,1-1.68,1.87,9.13,9.13,0,0,1-6.77.43,30.58,30.58,0,0,1-9.2-4.25l-.89-.61s-.08,0-.21,0a57.84,57.84,0,0,1,0,8.43c-1.37,18.75-8.26,35-22,48.08a47.13,47.13,0,0,1-25.8,13c-.53.08-.91.16-.62.89a68.63,68.63,0,0,1,4.5,22.84c.43-.16.49-.55.65-.83a27.12,27.12,0,0,1,4.27-5.77,9.13,9.13,0,0,1,4.86-2.65,5.92,5.92,0,0,1,6.48,3.4c.55,1.3.42,2.39-.37,3a3.28,3.28,0,0,1-4.1,0,4.31,4.31,0,0,1-.39-.46c-1.78-2.46-4.25-2.35-6,.37a6.26,6.26,0,0,1,4.65,3.71c.39.9.35,1.37-.76,1.66a19.38,19.38,0,0,0-7.53,3.8,3.49,3.49,0,0,0-1.24,1.84c-.67,2.55-1.39,5.08-2.07,7.63-3.41,12.93-10.39,23.76-19.61,33.26A93.51,93.51,0,0,1,168.57,278a3.47,3.47,0,0,0-2,2.25c-2.27,7-6.74,12.36-12.28,17a66.24,66.24,0,0,1-26.84,13.18l-.69-2.87c1.52-.39,3-.83,4.54-1.31a63,63,0,0,0,20.72-11,34.23,34.23,0,0,0,10.25-12.54c.24-.54.79-1.23.44-1.64s-1,.23-1.47.44A128.4,128.4,0,0,1,132,289.77q-1,.17-2,.27a2.47,2.47,0,0,0-2.42,1.61,5.43,5.43,0,0,1-3.84,3c-.51.14-.63,0-.84-.41-.77-1.58-.81-1.58-.59-1.76l1.58-1.22c.28-.11.57-.29.08-.43a1.37,1.37,0,0,0-1.1.19l-1.14.07a2.22,2.22,0,0,0-1.27.17l-1.37.06a5,5,0,0,0-2,.18l-3.28.06h-5.26l-4.26-.06a9.81,9.81,0,0,0-2.7-.18l-2.08-.06a4.21,4.21,0,0,0-1.76-.18L96.22,291a2.28,2.28,0,0,0-1.29-.16l-1.36-.08a2.34,2.34,0,0,0-1.28-.17l-3.08-.3a2.11,2.11,0,0,0-1.24-.18,150.8,150.8,0,0,1-16.8-2.75,207,207,0,0,1-26-7.38,7.13,7.13,0,0,0-2.09-.74.51.51,0,0,1-.27-.08c-.15-.11-.13-.33.12-.57.58-.55,1.13-1.12,1.71-1.67s.91-.26,1.44-.1c6.37,1.94,12.76,3.81,19.24,5.36s13.14,3.08,19.82,4.08a61.68,61.68,0,0,0,7.78,1,2.16,2.16,0,0,0,1.28.17l.91.06a2.93,2.93,0,0,0,1.49.18l1.36.06a2.93,2.93,0,0,0,1.52.17l1.85.07a6.21,6.21,0,0,0,2.23.18l3.28.06a39.67,39.67,0,0,0,8.08,0l2.34-.06a3.07,3.07,0,0,0,1.53-.17l1.35-.07a2.15,2.15,0,0,0,1.25-.18l.91-.06c.23-.13.82.38.7-.39-4.37-2.39-9.15-3.88-13.49-6.33-2.46-1.38-4.91-2.77-6.48-5.25,1.21-.72,2.58-.5,3.88-.64,2.74,2.87,6.22,4.56,9.75,6.18C119.08,282.29,121.54,283.37,124,284.47Z" transform="translate(-8.08 -10.17)"/><path class="cls-1" d="M122.49,39.77a21.23,21.23,0,0,1-.85,14.08,36.86,36.86,0,0,1-13.2,16.65c-.37.26-.81,1.18-1.43.36a1.63,1.63,0,0,1,.34-2.38,32.26,32.26,0,0,0,8.11-7.91c3.51-4.93,5.77-10.28,5.61-16.46-.09-3.66-1-6.88-4.09-9.29-1.83-1.45-3.36-3.26-5.23-4.76,2-1.18,2-1.2,3.69.25C118.47,33,121.37,35.73,122.49,39.77Z" transform="translate(-8.08 -10.17)"/><path class="cls-1" d="M105.42,300.49a30.68,30.68,0,0,1-5.41,3.94,35.33,35.33,0,0,1-6.25,2.51,47.72,47.72,0,0,0,10.66,1.85,2.12,2.12,0,0,0,1.29.17l1.38.06a7,7,0,0,0,2.46.18,38.76,38.76,0,0,0,4.82,0,5.51,5.51,0,0,0,2.21-.18l1.15-.06a2.07,2.07,0,0,0,1.25-.18,45.21,45.21,0,0,0,7.77-1.31l.69,2.87c-1.16.3-2.34.56-3.52.8a58.26,58.26,0,0,1-13,1.3,7.84,7.84,0,0,0-1.07.14,21.45,21.45,0,0,0-3.67-.18l-1.84-.06a3,3,0,0,0-1.52-.18A75.14,75.14,0,0,1,90,309.93c-3.64-1-7.22-2.15-10.78-3.44a106.83,106.83,0,0,1-11.51-5,131.17,131.17,0,0,1-14.94-8.84c-3.62-2.49-7.07-5.2-10.52-7.93-.76-.61-1.47-1.3-2.22-1.94-.45-.39-.47-.69,0-1.17.85-.91,1.26-1.35,1.7-1.35s.89.41,1.82,1.21a113.3,113.3,0,0,0,15.34,11A112,112,0,0,0,80.9,303.06a17.17,17.17,0,0,0,6.74,1.16,2.21,2.21,0,0,0,1.6,0l1.61-.06a2,2,0,0,0,1.26-.18c3.83-.36,7.44-1.34,10.21-4.19.87-.9,1.43-.84,2.19,0A10.21,10.21,0,0,0,105.42,300.49Z" transform="translate(-8.08 -10.17)"/><path class="cls-1" d="M96.8,72a17,17,0,0,0,4.48-.72c.72-.2,2.21,1.16,2.06,1.89-.09.41-.53.44-.84.57a21.07,21.07,0,0,1-8.07,1.51A32.61,32.61,0,0,1,80.31,72c-.75-.39-.91-.5-.19-1.24,1.68-1.7,3.2-2,5.47-.87A25.79,25.79,0,0,0,96.8,72Z" transform="translate(-8.08 -10.17)"/><path class="cls-1" d="M119.28,94.93c-7.91,9-16.43,17.48-24.34,26.49-2.35,2.68-4.67,5.37-7,8a94.74,94.74,0,0,0-10.06,13.21l-.94-.06c-.4-.46-1.36,0-1.5-.9a102.83,102.83,0,0,1,9.94-13.38c.23-.26.44-.54.66-.81,1.7-1.63,3.14-3.49,4.68-5.26,7.36-8.39,15.12-16.4,22.58-24.7,1.63-1.81,3.22-3.65,4.79-5.52.55-.66.88-.88,1.42,0C120.4,93.62,120.44,93.6,119.28,94.93Z" transform="translate(-8.08 -10.17)"/><path class="cls-1" d="M68.54,141.22c-1.16-.47-2.39,0-3.58-.24a44.07,44.07,0,0,1,2.42-8,108.51,108.51,0,0,1,5.27-12.19c.72-1.39,1.56-2.71,2.35-4.07,2.13-3.22,4.16-6.51,6.5-9.59a127.33,127.33,0,0,1,27-26.4c.71-.52,1.16-.61,1.75.12a18.45,18.45,0,0,0,2.1,2.14c.67.6.68,1-.1,1.51a115.14,115.14,0,0,0-11.46,9.44A125.21,125.21,0,0,0,79.24,120c-.13.21-.23.42-.34.63A88.78,88.78,0,0,0,69.48,141c-.27.29-.63.17-1,.22Z" transform="translate(-8.08 -10.17)"/><path class="cls-1" d="M67.81,200.5a2.08,2.08,0,0,1,.4,1.67c-.47-.18-.51-.61-.69-.94a1.57,1.57,0,0,1,0-.23C67.78,200.9,67.77,200.69,67.81,200.5Z" transform="translate(-8.08 -10.17)"/><path class="cls-1" d="M65.93,197.59v0Z" transform="translate(-8.08 -10.17)"/><path class="cls-1" d="M65.44,188.05a2.15,2.15,0,0,0,.18,1.25,45.88,45.88,0,0,0,2.07,10.63c0,.18.08.38.12.57s0,.4-.25.5c-.22-.18-.16-.56-.48-.67-.08-.18-.17-.35-.25-.53a1.23,1.23,0,0,0-.42-1.22,1.07,1.07,0,0,0-.48-1h0a1.94,1.94,0,0,0-.5-1.16,2.7,2.7,0,0,0-.74-1.65,43.22,43.22,0,0,1-1.71-4.1c-.22-.82-.44-1.64-.67-2.46s-.08-1.74-.3-2.59a2.15,2.15,0,0,0-.18-1.27l-.06-1.13a4,4,0,0,0-.18-1.75l-.06-1.85a20.56,20.56,0,0,0-.18-3.92v-8.48a33.41,33.41,0,0,0,.18-5.1l.06-2.1a4,4,0,0,0,.18-1.74l.06-.91a2.24,2.24,0,0,0,.18-1.25c.14-.34.48-.36.76-.48,1,.15,2-.25,2.89.23a11.5,11.5,0,0,0-.27,2.81A2.11,2.11,0,0,0,65.2,160l-.06.9a2,2,0,0,0-.17,1.26c0,.54,0,1.07-.07,1.61a17.48,17.48,0,0,0-.18,4.15v6.5a19.19,19.19,0,0,0,.18,4.15l.06,2.57a6.21,6.21,0,0,0,.18,2.23l.06,1.61a3.91,3.91,0,0,0,.18,1.76Z" transform="translate(-8.08 -10.17)"/><path class="cls-1" d="M72.36,247.34a18,18,0,0,1-9.67-7.45A8.19,8.19,0,0,1,61.51,236v-1.9c.3-1.29.61-2.55,2-3.17h1.18a3.69,3.69,0,0,1,2,2.44v1.42c-.26,1-1.45,1.19-1.73,2.15a1.71,1.71,0,0,0,0,1.75A6,6,0,0,0,67.76,243c.15.18.34.55.48,0a3.35,3.35,0,0,0,0-1,10.61,10.61,0,0,1,1.91-4.36c.1-.17.16-.42.52-.28,3.12,1.16,6,2.65,7.19,6.05a7.43,7.43,0,0,1,.47,2.92c0,.6.15.74.75.66a93.39,93.39,0,0,0,22-6c2.55-1,5.08-2.1,7.54-3.33a1.59,1.59,0,0,1,1.12-.22,1,1,0,0,1,.74.7c.08.33-.31.38-.54.51a82.26,82.26,0,0,1-22,9.32A72.25,72.25,0,0,1,80,249.52a2.11,2.11,0,0,0-1.26.18l-1.14.06a5.2,5.2,0,0,0-2,.18H69.79a4,4,0,0,0-1.74-.18c-1-.09-2.06-.21-3.08-.37l.28-2a21.12,21.12,0,0,0,3.9.23,25.91,25.91,0,0,0,4,.18C72.82,247.4,72.61,247.31,72.36,247.34Z" transform="translate(-8.08 -10.17)"/><path class="cls-1" d="M139.6,53.25c1.59-10.52-2-19.39-9-26.94-6.69-7.18-15.19-11-24.85-12.27-3.48-.45-6.35,1.19-8.93,3.29-1.14.94-.89,1.85.46,2.44.66.29,1.33.56,2,.79a1.44,1.44,0,0,1,1,1.88,2.55,2.55,0,0,1-3.52,2.16,5.48,5.48,0,0,1-2.28-9,14.82,14.82,0,0,1,2.68-2,21.65,21.65,0,0,0-7.17.91C81.4,16.88,74.52,21.59,70,29.38c-4.36,7.56-4.26,15.45-1.2,23.44,1,2.49,1,2.42-1.55,3.36-1.13.42-1.64.25-2.09-.93-2.69-7.09-3.62-14.3-1.72-21.74.14-.53.32-1,.53-1.74a2,2,0,0,0-.71.53l-1.83-1.62c.56-.63,1.12-1.27,1.69-1.9a105.15,105.15,0,0,1,9.47-9.53,37.16,37.16,0,0,1,19.51-8.49c9.82-1.38,19.43-.43,28.47,3.79,12.94,6,20.2,16.36,22.1,30.48a34.55,34.55,0,0,1,.22,8.13,4.14,4.14,0,0,1-.34,1.61c-.75-.17-1.49-.38-2.23-.49S139.49,53.92,139.6,53.25Z" transform="translate(-8.08 -10.17)"/><path class="cls-1" d="M54.85,246.83a34,34,0,0,1-12.58-7.43,11.09,11.09,0,0,1-3.79-7.69v-1.42a14.24,14.24,0,0,1,2.14-6.8c1.12-1.79,2.83-2.38,4.71-2.78,2.71-.57,5,.49,7.28,1.81a3.86,3.86,0,0,1,1,1.29c0,.47,0,.95,0,1.42a3.73,3.73,0,0,1-2.93,2.7H49.57c-1,0-1.47-.88-2-1.53A3.12,3.12,0,0,0,45,224.8,2.82,2.82,0,0,0,42.41,227a5.52,5.52,0,0,0-.54,2.5,2.64,2.64,0,0,0,0,2c.11,2.43,1.45,4.25,3,5.92,4.14,4.49,9.5,6.9,15.19,8.66a34.91,34.91,0,0,0,5.21,1.24l-.28,2A52.86,52.86,0,0,1,54.85,246.83Z" transform="translate(-8.08 -10.17)"/><path class="cls-1" d="M36.2,48.9c5.33.56,9.59-1.34,13.3-5,4.24-4.17,8-8.76,12-13.23L63.3,32.3c-.17.2-.3.42-.44.6-3.52,4.4-6.82,9-11,12.81-2.89,2.64-6,4.95-9.9,5.84a21.34,21.34,0,0,1-10.56-.37,9.11,9.11,0,0,1-6.27-5.67c-2-5.09-2-10.06,1.53-14.63a10.09,10.09,0,0,1,7.28-4.12,9.08,9.08,0,0,0,7.46-5A6.14,6.14,0,0,0,42,20.14a1.9,1.9,0,0,0-1.84-2.49,6.09,6.09,0,0,0-3.46.81c.11-2.44.92-3.54,2.83-3.83a4.2,4.2,0,0,1,4.72,2.83,7.12,7.12,0,0,1-.64,6.33,12.36,12.36,0,0,1-8.33,5.76c-5.88,1.21-8.76,5.44-7.79,11.39C28.29,45.66,31.45,48.4,36.2,48.9Z" transform="translate(-8.08 -10.17)"/><path class="cls-1" d="M29,275.55a5.33,5.33,0,0,1,3.68-6.3,5.68,5.68,0,0,1,7.12,2.92c.17.35.33.72.49,1.08v2.14c-1.4,3.39-3.28,4.7-6.47,4.48A6,6,0,0,1,29,275.55Zm2.37-1c0,1.38.79,2.08,2.34,2.09s2.44-.71,2.44-2.13-.83-2-2.42-2S31.31,273.21,31.32,274.58Z" transform="translate(-8.08 -10.17)"/><path class="cls-1" d="M17,256.65A104.31,104.31,0,0,0,30.45,268c.19.14.34.32.48.44-1.36,1.25-2.43.83-3.8-.21a94.37,94.37,0,0,1-9.69-8.38,20.79,20.79,0,0,1-5.9-9.87c-.13-.51.06-1-.18-1.51,0-1,0-2.07,0-3.1a7.37,7.37,0,0,1,.69-2.64,1.84,1.84,0,0,1,3.28-.44A14.24,14.24,0,0,1,16.46,244l0,1.19A4.51,4.51,0,0,1,14.61,247a2.59,2.59,0,0,0-1.22,3.17A13.88,13.88,0,0,0,17,256.65Z" transform="translate(-8.08 -10.17)"/><path class="cls-1" d="M20.9,269.43a3.31,3.31,0,0,0,1.53.17l4.69,1.24c.42.11,1,.11.78.76s-.26,1.25-1.11,1.09c-1-.19-2-.41-3-.61a14.56,14.56,0,0,0-10.48,1.72,1.64,1.64,0,0,0-.92,1.65c.07.86.8.88,1.39,1.05.76.23,1.81.13,1.73,1.36s-.78,1.67-1.92,1.9c-1.38.28-2.59.23-3.52-1a3.86,3.86,0,0,1-.51-4.53c1.35-2.54,3.89-3.21,6.3-4.06a22,22,0,0,1,2.55-.6,4.87,4.87,0,0,0,1.74-.18A1.13,1.13,0,0,0,20.9,269.43Z" transform="translate(-8.08 -10.17)"/><path class="cls-2" d="M207,165.44c0,3-.4,6-.67,9-.18,2.1,0,4.2-.42,6.31-.81,4.39-1.94,8.7-3.11,13a110.73,110.73,0,0,1-11.06,26.3,105.56,105.56,0,0,1-10.89,15.55,92.51,92.51,0,0,1-12.75,12.59c-2.08,1.66-4.06,3.48-6.24,5a143.62,143.62,0,0,1-12.25,7.68A114.25,114.25,0,0,1,128.53,270a124.11,124.11,0,0,1-18.46,4.26c-3.26.5-6.49,1.18-9.78,1.36s-6.86.3-10.29.3a88.06,88.06,0,0,1-23.87-3.65,96.43,96.43,0,0,1-19.7-8A82.38,82.38,0,0,1,30.9,253.54a64.79,64.79,0,0,1-13-15.51,39.79,39.79,0,0,1-5-14.23,46.19,46.19,0,0,1-.49-7.15,14,14,0,0,1,2.24-7.45,96,96,0,0,1,9.61-12.49c1-1.14,1.93-2.33,2.82-3.55a5.65,5.65,0,0,0,.58-5.37,2.52,2.52,0,0,0-2-1.68,3.25,3.25,0,0,1-2.16-3.2c.14-.81.48-1.23,1.49-1a14,14,0,0,1,11.2,12.46,18,18,0,0,1,.35,5c-.43,2.85-2.14,5-3.84,7.17-3.74,4.76-7.75,9.31-11,14.42-3.76,5.83-3.95,12.31.7,18a46.64,46.64,0,0,0,9.27,8.42c10,7,21.16,11.42,33,14.28a59.85,59.85,0,0,0,11.8,1.6,87.16,87.16,0,0,0,23-2.42,115.52,115.52,0,0,0,14.26-3.87A101.89,101.89,0,0,0,137,244.48a118.25,118.25,0,0,0,12.86-10.68A109.91,109.91,0,0,0,163.69,218a117.34,117.34,0,0,0,11.12-19.12,107.91,107.91,0,0,0,7.47-20.67,121.33,121.33,0,0,0,2.2-13,61.84,61.84,0,0,0,.56-8.88c-.06-3.92-.08-7.87-.53-11.81a124.58,124.58,0,0,0-2.62-15.25,104.14,104.14,0,0,0-9.9-25,107.09,107.09,0,0,0-11-15.83c-.21,2.21-.38,4.21-.58,6.2a64.28,64.28,0,0,1-3.39,14.87,85.48,85.48,0,0,1-13.85,25.14,81.42,81.42,0,0,1-7,7.86c-3.23,3.13-6.78,5.91-10.25,8.78-2.36,2-4.74,3.89-7,5.94-3.92,3.52-7.9,7-11.54,10.79-1.33,1.39-2.57,2.86-4,4.17s-.75,2.77-.52,4.14c.32,1.93.29,3.89.62,5.81a1.69,1.69,0,0,1-.58,1.61c-.78.73-1.5,1.53-2.39,2.45,0-.18-.11-.36-.15-.54-.72-2.51-1.06-4.94-2-7.39A54.69,54.69,0,0,0,89.83,194c-2.28,7.53-1.21,14.36,3.86,20.53a28.72,28.72,0,0,0,14,9.14.91.91,0,0,0,.8,0,25.32,25.32,0,0,1-2.77-3.55,9.55,9.55,0,0,1-1.23-3.34c-.75-4.12,4.76-7.56,8.68-5.69.32.16.65.31,1,.49a1.29,1.29,0,0,1,.48,1.95,1.77,1.77,0,0,1-2.38.59c-1.68-1.28-2.37-1-3.14,1a7.24,7.24,0,0,0,5.68,9.42,24,24,0,0,0,8.86-.6,2.6,2.6,0,0,1,2.53.88,38,38,0,0,1-8.47,1.87c-1.22.12-2.45.22-3.69.27a26.43,26.43,0,0,1-16.77-5.37,27.77,27.77,0,0,1-10.62-14,27.13,27.13,0,0,1-.89-11c.67-7.74,4.63-14,9-20,.18-.26.37-.52.56-.77,1.64-2.16,1.69-2.19.26-4.46-.66-1-1-2.28-2-3.25-.82,1.09-1.65,2.1-2.39,3.16-3.75,5.36-7.07,10.94-8.56,17.39a40.64,40.64,0,0,0-1.11,11.62c.37,6.28,1.74,12.28,5.31,17.63a28.17,28.17,0,0,0,13.64,10.64,38.84,38.84,0,0,0,11.66,2.26,29.27,29.27,0,0,0,10.26-1A31.16,31.16,0,0,0,133.43,224,36,36,0,0,0,142.79,213c2.38-4.49,3.67-9.21,2.27-14.27-.76-2.73-1.8-5.37-4.49-6.94-1.49-.87-7.72-1.34-8.88-1a6.1,6.1,0,0,0-3.1,2.32c-1.61,2.08-3.26,4.14-5.06,6a17.35,17.35,0,0,1-13.67,5.75,17.39,17.39,0,0,1-4.87-.37c-4.79-1.54-7.28-5.06-8.37-9.75a22.18,22.18,0,0,1-.52-5.7,2.82,2.82,0,0,1,.51-1.69,2.45,2.45,0,0,1,2-1.17c.76,0,.64.91.86,1.42a11.48,11.48,0,0,0,2.17,3.84c1.41,1.36,3.5,1.22,5.45-.32,1.28-1,2.49-2.11,3.71-3.2,3.55-3.18,7.28-6.12,11.81-7.79a21,21,0,0,1,11.15-1.1c7.5,1.33,11.84,6.21,14.45,13a31.71,31.71,0,0,1,2.23,11.3,25,25,0,0,1-5.12,15.07c-5.5,7.68-13.16,12.3-22.18,14.69a39.28,39.28,0,0,1-13.51.89,53,53,0,0,1-7.26-1.12,37.86,37.86,0,0,1-3.78-1.07c-.66-.21-1.31-.45-2-.71a40.84,40.84,0,0,1-11.19-6.81c-8.76-7.38-13.56-17-16-28a65,65,0,0,1-1.62-14.43,50.78,50.78,0,0,1,4.53-21.1l1.84-4c-.89-.68-11.21-2-15.3.15a19.67,19.67,0,0,0-5.46,4.2.88.88,0,0,0-.14,1c1.55,5.15,3.07,10.32,4.75,15.43l-1.8.6-.45-1.35c-1.22-3.71-2.42-7.43-3.63-11.14-.16-.52-.27-1.05-.46-1.75a23.62,23.62,0,0,0-3.11,7.87c-.08.35-.19.7-.24,1.05-.34,2.75-.18,2-2.49,2.15-.74,0-1-.25-1.19-1a44.57,44.57,0,0,0-4-11A46.06,46.06,0,0,0,29.31,148.7c-1.36-1.15-1.39-2.1,0-3.6a2.24,2.24,0,0,1,3.37,0c.83.85,1.54,1.82,2.29,2.75a1,1,0,0,0,1.43.26,44.83,44.83,0,0,1,7.46-3.23c.65-.21.8-.51.52-1.15-4-9.08-8.1-18.15-13.88-26.32a36.18,36.18,0,0,0-10.17-10.16,11.77,11.77,0,0,0-7.42-1.75c-1.52.12-1.74.6-1,2,.36.72.77,1.42.15,2.22a2.31,2.31,0,0,1-2.28.74c-.92-.11-1.85-2-1.59-3.25.56-2.7,3.46-4.37,6.45-3.9a21,21,0,0,1,10.15,4.75,1.78,1.78,0,0,0,1.06.5.46.46,0,0,0,.25.47.3.3,0,0,0,0,.08l.06,0a.94.94,0,0,0-.1-.1.48.48,0,0,0-.23-.48,15.41,15.41,0,0,0-1.67-2.68l1.25-.91a127.27,127.27,0,0,1,11.39,18c2.82,5.59,5.79,11.12,8.54,16.75.49,1,1,2,1.35,3.07.26.69.56.9,1.33.67a59.3,59.3,0,0,1,11-2.07c2.22-.23,4.45,0,6.67-.39,2-.38,4,.45,6,.55a21.79,21.79,0,0,1,4.46.76,35.42,35.42,0,0,1,5.75,2.27,1.06,1.06,0,0,0,1.44-.34,116.71,116.71,0,0,1,13-12.35c5.54-4.61,11.34-8.9,16.61-13.84,2.92-2.74,5.73-5.54,7.67-9.09,2.06-3.76,2-7.71.93-11.72-1.09-4.24-3.57-7.69-6.34-11-3.83-4.54-8.32-8.51-11.82-13.31a23.83,23.83,0,0,1-4-9.41c-.92-4.48.82-8.18,3.16-11.77a46.26,46.26,0,0,0,4.15-7,7.72,7.72,0,0,0-1.41-8.47,17.26,17.26,0,0,0-2.62-2.78.65.65,0,0,1-.22-.92,2.19,2.19,0,0,1,3.49-.95c3.1,2.8,6.34,5.51,8.37,9.28,1.73,3.21,1.64,6.71,1.3,10.17-.39,3.81-2.43,6.84-4.94,9.62-.88,1-1.8,1.91-2.67,2.9a6.71,6.71,0,0,0-1.3,6.5,9.56,9.56,0,0,0,2.67,4.57c3.73,3.71,7,7.81,10.44,11.79a54.27,54.27,0,0,1,7.88,11.65,30.29,30.29,0,0,1,2.9,15.33c-.57,9.54-4.58,17.71-10.13,25.26-5,6.85-11.23,12.63-17.18,18.65-1.26,1.28-2.46,2.62-3.7,3.92-.29.31-.49.59-.29,1.05a41.18,41.18,0,0,1,2.15,6.24l2.13-2.16c3.64-3.65,7.22-7.36,11.07-10.8,3.27-2.93,6.49-5.92,9.52-9.1,2.47-2.6,4.89-5.23,7.16-8l1.67,1.38c-.86,1-1.76,2-2.71,2.92-.17.16-.37.31-.28.59.44.14.59-.22.8-.42a82.34,82.34,0,0,0,17.37-23.57A72.57,72.57,0,0,0,154.71,99a76.14,76.14,0,0,0,.94-11.77,34,34,0,0,0-.49-4.5c-.12-.8-.79-1.19-1.32-1.64-3-2.59-5.7-5.46-9-7.65-.74-.49-.45-1,.07-1.46a4.94,4.94,0,0,1,5.66-.26,2.55,2.55,0,0,0,1.24.69l.1.09-.09-.11a25.46,25.46,0,0,0-3.12-6.29A28.25,28.25,0,0,0,145.74,62c-2.32-2.56-4.93-4.81-8.42-5.6-3.08-.7-7.08.73-7.64,4.17a.86.86,0,0,1-1.14.74c-.51-.1-1-.22-1.51-.33a7,7,0,0,1,5.31-6,39.31,39.31,0,0,1,5.9-.82c3.59-.2,6.52,1.45,9,3.77A43,43,0,0,1,158.73,76.3a3.51,3.51,0,0,0,1.36,1.86c3.15,2.24,6.11,4.72,9,7.26,1.77,1.55,3.41,3.24,5.15,4.82,1.91,1.74,3.53,3.8,5.32,5.67a95.87,95.87,0,0,1,7.84,9.59,102,102,0,0,1,11.71,20.41,98.08,98.08,0,0,1,6.29,20.4,90.17,90.17,0,0,1,1.38,10.76C207,159.86,207,162.65,207,165.44Z" transform="translate(-8.08 -10.17)"/><path class="cls-2" d="M146.74,102.85a36.43,36.43,0,0,1-2.81,21.24c-2.07,4.81-5.3,8.88-8.48,13-.77,1-1.56,2-2.39,2.94l-1.67-1.38a71.14,71.14,0,0,0,9.75-14.92,31.15,31.15,0,0,0,3-12.45,22.17,22.17,0,0,0-.8-7.87,16.57,16.57,0,0,0-7.73-9.08c-.88-.53-1.85-.93-2.77-1.41-1.53-.8-1.69-2.15-.16-2.86,3.41-1.59,6.74-2.3,9.58,1.48A25.81,25.81,0,0,1,146.74,102.85Z" transform="translate(-8.08 -10.17)"/><path class="cls-2" d="M102.05,234.05c-1.4,2-2.47,2.37-4.42,1.64a114.87,114.87,0,0,1-22.36-10.85,64.44,64.44,0,0,1-13.5-11.58A129.19,129.19,0,0,1,51.35,199a1.9,1.9,0,0,0-2-1.1,7.86,7.86,0,0,1-1.68,0,2.71,2.71,0,0,1-2.49-1.56c-.63-1.29-1.41-2.51-2-3.81a13.11,13.11,0,0,0-5.36-5.79c-.3-.18-.72-.28-.69-.73s.5-.56.87-.68c1.18-.38,2.28.11,3.4.29.42.07.8.42,1.35.16a14.07,14.07,0,0,0-4-4.36c-1-.67-2.17-.36-3.26-.2a32.26,32.26,0,0,1-3.24.72c-.78-1.71-.29-2.91,1.46-3.42.83-.24,1.7-.37,2.56-.53,2-.38,3.38.89,4.72,2.08a39.37,39.37,0,0,1,10.77,15.21.85.85,0,0,0,.43.46c-.19-1.62-.41-3.24-.57-4.86-.24-2.33-.64-4.66-.14-7a6.37,6.37,0,0,1,1.26-2.42c.73-1,1.76-.43,2.73-.61,0,.85-.68,1.16-1,1.67-1.47,2.51-1.3,5.19-1,7.89,1.05,8,5.12,14.57,10.21,20.59a67.17,67.17,0,0,0,14.71,13,5.24,5.24,0,0,0,.64.29.5.5,0,0,0,.49.23.2.2,0,0,0,0,.08s0,0,.06,0l-.1-.1a.46.46,0,0,0-.47-.25c-.69-1.56-2-2.63-3-4a117.34,117.34,0,0,1-7.54-12c-4.84-8.76-8.25-18.09-11.4-27.53-.3-.9-.6-1.8-.89-2.7l1.8-.6c1.31,4,2.7,7.92,4.28,11.8,1.33,3.25,2.86,6.46,4.31,9.68a106.65,106.65,0,0,0,9.69,17.54c3.59,5.13,7.6,9.86,13,13.21a33.29,33.29,0,0,0,7.52,3c.42.14.85.27,1.27.39C99.4,233.45,100.7,233.79,102.05,234.05Z" transform="translate(-8.08 -10.17)"/><path class="cls-2" d="M25.39,105l-1.25.91c-.63-.84-1.31-1.65-1.95-2.48-3.88-5-8.42-9.47-11.92-14.78a17.73,17.73,0,0,1-1.66-3.17,8.34,8.34,0,0,1,.65-7.14,2,2,0,0,1,2.29-1.14c1.25.3,2.53.69,2.93,2.15.16.6,0,1.09-.79,1.17A10.15,10.15,0,0,0,12,81c-1.58.5-1.91,1.25-1.33,2.83a17.23,17.23,0,0,0,1.76,3.38C15.48,92,19,96.51,22.49,101.09Q24,103,25.39,105Z" transform="translate(-8.08 -10.17)"/><path class="cls-2" d="M51.66,121.08A24.07,24.07,0,0,1,41,119.32a21.52,21.52,0,0,1-12.88-14.91c-1.55-6-1.82-12,.28-17.87a28.5,28.5,0,0,1,5.22-8.67c5.3-6.38,12.16-10.71,19.31-14.67,4.31-2.39,8.73-4.56,13.2-6.54C70.44,54.75,74.8,53,79,50.78a23.59,23.59,0,0,0,6.71-4.54A7.68,7.68,0,0,0,85.76,36a9.66,9.66,0,0,0-2.57-2.32c-.64-.38-.64-.82-.18-1.37a3.12,3.12,0,0,1,4.35-.55c3.48,2.63,6.29,5.78,7.42,10.12.86,3.32.17,6.57-.77,9.75a35.38,35.38,0,0,1-8.52,14.24A58.92,58.92,0,0,1,67,78.59C60,81.84,52.83,84.92,46.23,89A39.3,39.3,0,0,0,35.8,97.7c-4.42,5.59-2.67,11.73,2.73,15.47a15.51,15.51,0,0,0,8,2.82c3.18.18,5.19-.94,7.05-4.17s3.2-7,5.25-10.23c1.83-2.9,3.72-5.85,7.05-7.26a15.66,15.66,0,0,1,14.69.9A8.75,8.75,0,0,1,82.41,97c.67.72,0,1.24-.36,1.79s-.77.44-1.23.16A5.9,5.9,0,0,0,77,98.3c-1.66.16-2.35,1.5-3,2.82a94.13,94.13,0,0,1-4.71,9.95,25.34,25.34,0,0,1-6.1,7,16,16,0,0,1-8.81,3C53.5,121.14,52.58,121.08,51.66,121.08Z" transform="translate(-8.08 -10.17)"/></svg>