<svg xmlns="http://www.w3.org/2000/svg" width="500" height="378" viewBox="0 0 500 378">
  <defs>
    <style>
      .cls-1 {
        fill: #252525;
        fill-rule: evenodd;
      }
    </style>
  </defs>
  <path class="cls-1" d="M497.843,374.994a3.152,3.152,0,0,1-4.285-1.22l-52.853-94.9L422.117,308.4a3.151,3.151,0,0,1-5.458-.218L328.581,139.713l-26.735,23.83a3.157,3.157,0,0,1-4.23-.035l-37.5-34.526-36.923,35.731a3.149,3.149,0,0,1-4.419-.035L190.1,136,142.48,221.316a3.15,3.15,0,0,1-4.9.767l-35.394-33.075L5.816,374.951a3.15,3.15,0,0,1-5.593-2.9L98.5,182.422a3.149,3.149,0,0,1,4.947-.853l35.491,33.163,119-213.207a3.15,3.15,0,0,1,5.542.076L419.7,300.406l18.5-29.383a3.15,3.15,0,0,1,5.418.145l55.44,99.54A3.152,3.152,0,0,1,497.843,374.994ZM260.6,9.685l-67.311,120.6,27.748,27.748,36.832-35.645a3.146,3.146,0,0,1,4.325-.054l37.591,34.607,25.787-22.983Z"/>
</svg>
