<svg xmlns="http://www.w3.org/2000/svg" width="511" height="557" viewBox="0 0 511 557">
  <defs>
    <style>
      .cls-1 {
        fill: #252525;
        fill-rule: evenodd;
      }
    </style>
  </defs>
  <path class="cls-1" d="M468.815,386.958h0c-10.786,13.655-19.684,22.6-31.736,31.9l-3.893,3L309.9,267.148V68.977h5C423.028,68.977,511,157.046,511,265.3A194.417,194.417,0,0,1,468.815,386.958ZM319.893,79.051V263.645L434.829,407.88c9.481-7.737,17.1-15.677,26.145-27.129A184.5,184.5,0,0,0,501,265.3C501,164.238,420.212,81.713,319.893,79.051ZM452.091,495.9A278.384,278.384,0,0,1,58.864,107.159a280.9,280.9,0,0,1,95.342-78.035A275.132,275.132,0,0,1,278.194,0l6.047,0.016V275.9L455.968,492.784ZM274.245,279.387V10.036c-81.617,1.174-157.067,38.67-207.5,103.285A266,266,0,0,0,10,278.5c0,148.047,120.313,268.492,268.2,268.492a264.991,264.991,0,0,0,163.739-55.825Z"/>
</svg>
